<?xml version="1.0" encoding="iso-8859-1"?>
<!-- Generator: Adobe Illustrator 20.0.0, SVG Export Plug-In . SVG Version: 6.00 Build 0)  -->
<svg version="1.1" id="Layer_1" xmlns="http://www.w3.org/2000/svg" xmlns:xlink="http://www.w3.org/1999/xlink" x="0px" y="0px"
	 viewBox="0 0 148.759 27.57" style="enable-background:new 0 0 148.759 27.57;" xml:space="preserve">
<linearGradient id="SVGID_1_" gradientUnits="userSpaceOnUse" x1="5.4887" y1="27.5703" x2="5.4887" y2="10.9774">
	<stop  offset="0.1452" style="stop-color:#FFA73E"/>
	<stop  offset="1" style="stop-color:#E88C39"/>
</linearGradient>
<path style="fill:url(#SVGID_1_);" d="M10.977,16.211L10.977,16.211c-2.892,0-5.233-2.346-5.233-5.233H0
	C0,20.1,10.977,27.57,10.977,27.57l0,0V16.211z"/>
<linearGradient id="SVGID_2_" gradientUnits="userSpaceOnUse" x1="20.8288" y1="20.6379" x2="10.9775" y2="20.6379">
	<stop  offset="0.1414" style="stop-color:#6BA7FE"/>
	<stop  offset="1" style="stop-color:#548BF7"/>
</linearGradient>
<path style="fill:url(#SVGID_2_);" d="M15.424,13.705c-0.92,1.497-2.559,2.505-4.447,2.505V27.57
	c0.001-0.001,7.055-5.157,9.851-11.621L15.424,13.705z"/>
<linearGradient id="SVGID_3_" gradientUnits="userSpaceOnUse" x1="20.7677" y1="4.1246" x2="10.9775" y2="4.1246">
	<stop  offset="0" style="stop-color:#FF6457"/>
	<stop  offset="1" style="stop-color:#FF3074"/>
</linearGradient>
<path style="fill:url(#SVGID_3_);" d="M15.425,8.249l5.343-2.218C18.958,2.456,15.258,0,10.977,0v5.744
	C12.866,5.744,14.504,6.752,15.425,8.249z"/>
<linearGradient id="SVGID_4_" gradientUnits="userSpaceOnUse" x1="5.4887" y1="10.9774" x2="5.4887" y2="-3.243811e-06">
	<stop  offset="0.0995" style="stop-color:#39EAD1"/>
	<stop  offset="1" style="stop-color:#1AC2AB"/>
</linearGradient>
<path style="fill:url(#SVGID_4_);" d="M10.977,0L10.977,0C4.915,0,0,4.915,0,10.977h5.744c0-2.893,2.342-5.233,5.233-5.233h0V0z"/>
<path style="fill:#E1DFEB;" d="M7.632,10.977v0.011c1.844,0,3.338,1.492,3.344,3.334h0.002c0.006-1.842,1.5-3.334,3.344-3.334
	v-0.011c-1.847,0-3.345-1.498-3.345-3.345C10.977,9.48,9.48,10.977,7.632,10.977z"/>
<g>
	<path style="fill:#E1DFEB;" d="M88.305,25.05V7.215h-4.449v1.561l-0.163-0.133c-1.443-1.177-3.247-1.798-5.217-1.798
		c-4.906,0-8.75,4.088-8.75,9.307c0,2.328,0.81,4.55,2.28,6.256c1.622,1.888,4.139,3.015,6.73,3.015
		c1.881,0,3.549-0.605,4.955-1.799l0.164-0.14v1.566H88.305z M83.668,18.859l-0.018,0.025c-0.988,1.425-2.646,2.274-4.433,2.274
		c-2.771,0-4.859-2.152-4.859-5.007c0-2.877,2.042-5.046,4.751-5.046c1.804,0,3.458,0.828,4.539,2.271l0.02,0.027V18.859z"/>
	<path style="fill:#E1DFEB;" d="M140.233,11.105c1.13,0,2.119,0.367,2.783,1.033c0.778,0.777,1.11,1.81,1.11,3.454v9.458h4.633
		v-9.085c0-2.857-0.549-4.729-1.835-6.257l-0.001,0c-1.516-1.819-3.764-2.863-6.169-2.863c-1.866,0-3.56,0.605-5.033,1.798
		l-0.162,0.132v-1.56h-4.448V25.05h4.636V13.405l0.019-0.026C136.33,12.592,137.992,11.105,140.233,11.105z"/>
	<path style="fill:#E1DFEB;" d="M119.009,6.844c-5.322,0-9.492,4.088-9.492,9.307c0,5.198,4.17,9.271,9.492,9.271
		c5.324,0,9.495-4.072,9.495-9.271C128.504,10.932,124.333,6.844,119.009,6.844z M119.009,21.158c-2.771,0-4.859-2.152-4.859-5.007
		c0-2.877,2.089-5.046,4.859-5.046s4.859,2.169,4.859,5.046C123.868,19.006,121.779,21.158,119.009,21.158z"/>
	<path style="fill:#E1DFEB;" d="M58.935,6.844c-4.945,0-8.675,4.001-8.675,9.307c0,5.458,3.843,9.271,9.344,9.271
		c2.827,0,5.601-1.197,7.264-3.13l-2.614-2.614c-0.542,0.567-2.18,2.039-4.538,2.039c-2.661,0-4.705-1.795-4.971-4.365l-0.012-0.11
		h12.521c0.063-0.387,0.098-0.837,0.098-1.276C67.352,10.851,63.654,6.844,58.935,6.844z M54.953,13.908l0.016-0.114
		c0.245-1.79,2.024-3.246,3.966-3.246c1.619,0,3.482,1.243,3.669,3.25l0.01,0.109H54.953z"/>
	<path style="fill:#E1DFEB;" d="M45.948,23.206c1.354-1.32,2.13-3.151,2.13-5.025c0-2.44-1.284-4.731-3.271-5.837l-0.105-0.059
		l0.077-0.093c0.615-0.739,1.333-2.154,1.333-3.711c0-1.787-0.789-3.5-2.164-4.699c-1.3-1.145-2.859-1.633-5.218-1.633h-7.903v23.15
		h9.05C42.59,25.299,44.52,24.634,45.948,23.206z M35.46,6.293h3.008c1.448,0,2,0.377,2.381,0.784
		c0.398,0.431,0.627,1.002,0.627,1.568c0,0.566-0.229,1.137-0.627,1.566c-0.38,0.408-0.931,0.786-2.381,0.786H35.46V6.293z
		 M35.46,21.155v-6.014h4.317c1.38,0,2.267,0.303,2.876,0.983c0.516,0.55,0.789,1.25,0.789,2.023c0,0.774-0.273,1.477-0.792,2.029
		c-0.607,0.676-1.494,0.978-2.873,0.978H35.46z"/>
</g>
<path style="fill:#E1DFEB;" d="M104.543,18.819c-0.838,1.421-2.339,2.339-4.14,2.339c-2.771,0-4.859-2.152-4.859-5.007
	c0-2.877,2.089-5.046,4.859-5.046c1.821,0,3.332,0.947,4.165,2.406l4.236-1.758c-1.578-2.943-4.71-4.908-8.4-4.908
	c-5.322,0-9.492,4.088-9.492,9.307c0,5.198,4.17,9.271,9.492,9.271c3.671,0,6.793-1.937,8.378-4.843L104.543,18.819z"/>
</svg>
