<?xml version="1.0" encoding="iso-8859-1"?>
<!-- Generator: Adobe Illustrator 20.0.0, SVG Export Plug-In . SVG Version: 6.00 Build 0)  -->
<svg version="1.1" id="Layer_1" xmlns="http://www.w3.org/2000/svg" xmlns:xlink="http://www.w3.org/1999/xlink" x="0px" y="0px"
	 viewBox="0 0 20 20" style="enable-background:new 0 0 20 20;" xml:space="preserve">
<path style="fill:#5A5CAB;" d="M5.132,12.074c0,0.738-0.611,1.348-1.348,1.348c-0.743,0-1.348-0.611-1.348-1.348
	c0-0.743,0.606-1.348,1.348-1.348C4.521,10.726,5.132,11.331,5.132,12.074z M3.784,14.868c-0.742,0-1.348,0.61-1.348,1.348
	c0,0.742,0.605,1.348,1.348,1.348c0.737,0,1.348-0.605,1.348-1.348C5.132,15.479,4.521,14.868,3.784,14.868z M3.784,6.579
	c-0.742,0-1.348,0.61-1.348,1.348c0,0.742,0.605,1.348,1.348,1.348c0.737,0,1.348-0.605,1.348-1.348
	C5.132,7.189,4.521,6.579,3.784,6.579z M0.674,7.253C0.298,7.253,0,7.55,0,7.927c0,0.377,0.297,0.674,0.674,0.674
	c0.377,0,0.674-0.298,0.674-0.674C1.348,7.55,1.05,7.253,0.674,7.253z M3.784,2.436c-0.742,0-1.348,0.605-1.348,1.348
	c0,0.737,0.605,1.348,1.348,1.348c0.737,0,1.348-0.61,1.348-1.348C5.132,3.042,4.521,2.436,3.784,2.436z M19.326,8.6
	C19.703,8.6,20,8.303,20,7.926c0-0.376-0.297-0.674-0.674-0.674c-0.377,0-0.674,0.297-0.674,0.674
	C18.652,8.303,18.951,8.6,19.326,8.6z M12.073,5.132c0.737,0,1.348-0.61,1.348-1.348c0-0.742-0.61-1.348-1.348-1.348
	c-0.742,0-1.348,0.605-1.348,1.348C10.726,4.521,11.331,5.132,12.073,5.132z M12.073,1.348c0.377,0,0.674-0.297,0.674-0.674
	S12.45,0,12.073,0c-0.376,0-0.674,0.297-0.674,0.674S11.698,1.348,12.073,1.348z M0.674,11.4C0.298,11.4,0,11.697,0,12.073
	c0,0.375,0.297,0.674,0.674,0.674c0.377,0,0.674-0.297,0.674-0.674C1.348,11.697,1.05,11.4,0.674,11.4z M7.927,18.652
	c-0.376,0-0.674,0.297-0.674,0.674C7.253,19.703,7.551,20,7.927,20c0.377,0,0.674-0.297,0.674-0.674
	C8.601,18.95,8.303,18.652,7.927,18.652z M7.927,1.348c0.377,0,0.674-0.297,0.674-0.674S8.303,0,7.927,0
	C7.552,0,7.253,0.297,7.253,0.674S7.551,1.348,7.927,1.348z M7.927,5.132c0.742,0,1.348-0.61,1.348-1.348
	c0-0.742-0.605-1.348-1.348-1.348c-0.737,0-1.348,0.605-1.348,1.348C6.579,4.521,7.189,5.132,7.927,5.132z M7.927,10.052
	c-1.12,0-2.022,0.902-2.022,2.022c0,1.12,0.902,2.022,2.022,2.022c1.12,0,2.022-0.902,2.022-2.022
	C9.949,10.954,9.046,10.052,7.927,10.052z M16.216,10.726c-0.737,0-1.348,0.605-1.348,1.348c0,0.737,0.61,1.348,1.348,1.348
	c0.742,0,1.348-0.61,1.348-1.348C17.564,11.331,16.958,10.726,16.216,10.726z M16.216,14.868c-0.737,0-1.348,0.61-1.348,1.348
	c0,0.742,0.61,1.348,1.348,1.348c0.742,0,1.348-0.605,1.348-1.348C17.564,15.479,16.958,14.868,16.216,14.868z M16.216,6.579
	c-0.737,0-1.348,0.61-1.348,1.348c0,0.742,0.61,1.348,1.348,1.348c0.742,0,1.348-0.605,1.348-1.348
	C17.564,7.189,16.958,6.579,16.216,6.579z M16.216,2.436c-0.737,0-1.348,0.605-1.348,1.348c0,0.737,0.61,1.348,1.348,1.348
	c0.742,0,1.348-0.61,1.348-1.348C17.564,3.042,16.958,2.436,16.216,2.436z M19.326,11.4c-0.377,0-0.674,0.297-0.674,0.674
	s0.297,0.674,0.674,0.674c0.376,0,0.674-0.298,0.674-0.675C20,11.696,19.703,11.4,19.326,11.4z M12.073,14.868
	c-0.742,0-1.348,0.61-1.348,1.348c0,0.742,0.605,1.348,1.348,1.348c0.737,0,1.348-0.605,1.348-1.348
	C13.421,15.479,12.811,14.868,12.073,14.868z M12.073,18.652c-0.376,0-0.674,0.297-0.674,0.674c0,0.377,0.299,0.674,0.674,0.674
	c0.375,0,0.674-0.297,0.674-0.674C12.747,18.95,12.45,18.652,12.073,18.652z M7.927,5.905c-1.12,0-2.022,0.902-2.022,2.022
	c0,1.12,0.902,2.022,2.022,2.022c1.12,0,2.022-0.902,2.022-2.022C9.949,6.807,9.046,5.905,7.927,5.905z M7.927,14.868
	c-0.737,0-1.348,0.61-1.348,1.348c0,0.742,0.61,1.348,1.348,1.348c0.742,0,1.348-0.605,1.348-1.348
	C9.274,15.479,8.669,14.868,7.927,14.868z M12.073,10.052c-1.12,0-2.022,0.902-2.022,2.022c0,1.12,0.902,2.022,2.022,2.022
	c1.12,0,2.022-0.902,2.022-2.022C14.095,10.954,13.193,10.052,12.073,10.052z M12.073,5.905c-1.12,0-2.022,0.902-2.022,2.022
	c0,1.12,0.902,2.022,2.022,2.022c1.12,0,2.022-0.902,2.022-2.022C14.095,6.807,13.193,5.905,12.073,5.905z"/>
</svg>
