<svg id="Layer_1" data-name="Layer 1" xmlns="http://www.w3.org/2000/svg" xmlns:xlink="http://www.w3.org/1999/xlink" viewBox="0 0 20 20"><defs><style>.cls-1{fill:url(#linear-gradient);}</style><linearGradient id="linear-gradient" x1="2.74" y1="17.65" x2="17.27" y2="3.13" gradientUnits="userSpaceOnUse"><stop offset="0.14" stop-color="#6ba7fe"/><stop offset="1" stop-color="#5f95ff"/></linearGradient></defs><title>control_icons</title><path class="cls-1" d="M20,10v4.47a1,1,0,0,1-2.1,0V10A1,1,0,1,1,20,10ZM10,15.34a1.05,1.05,0,0,0-1,1.05V19A1,1,0,0,0,11,19V16.39A1.05,1.05,0,0,0,10,15.34Zm0-6.39A1.05,1.05,0,0,0,9,10v2.56a1,1,0,0,0,2.1,0V10A1.05,1.05,0,0,0,10,8.95Zm0-4.47A5.49,5.49,0,0,0,6.13,6.05a1,1,0,0,0,.72,1.8,1,1,0,0,0,.75-.3A3.43,3.43,0,0,1,13.43,10v7a1,1,0,0,0,2.1,0V10A5.53,5.53,0,0,0,10,4.47ZM1,10.87a1.05,1.05,0,0,0-1,1v2.56a1,1,0,0,0,2.1,0V11.92A1.05,1.05,0,0,0,1,10.87Zm16.61-7.3A10,10,0,0,0,.23,7.86,1.05,1.05,0,0,0,1,9.11l.22,0a1.06,1.06,0,0,0,1-.83A7.9,7.9,0,0,1,16.05,4.92a1,1,0,0,0,.71.37A1,1,0,0,0,17.53,5a1,1,0,0,0,.13-1.48ZM5.52,8.95a1.05,1.05,0,0,0-1,1.05v7a1,1,0,0,0,2.1,0V10A1.05,1.05,0,0,0,5.52,8.95Z"/></svg>