<svg id="Layer_1" data-name="Layer 1" xmlns="http://www.w3.org/2000/svg" xmlns:xlink="http://www.w3.org/1999/xlink" viewBox="0 0 20 20"><defs><style>.cls-1{fill:url(#linear-gradient);}</style><linearGradient id="linear-gradient" y1="10" x2="20" y2="10" gradientUnits="userSpaceOnUse"><stop offset="0.15" stop-color="#ffa73e"/><stop offset="1" stop-color="#e88c39"/></linearGradient></defs><title>control_icons</title><path class="cls-1" d="M10,0A10,10,0,1,0,20,10,10,10,0,0,0,10,0ZM2.58,7.37a7.85,7.85,0,0,1,14.83,0l.11.3H2.47Zm6.09,10.4A7.88,7.88,0,0,1,2.1,10V9.77h.23c3.58,0,6.55,3.48,6.61,7.77v.27ZM8.49,10A1.51,1.51,0,1,1,10,11.5,1.51,1.51,0,0,1,8.49,10Zm2.84,7.77-.27,0v-.27c.06-4.28,3-7.77,6.61-7.77h.23V10A7.87,7.87,0,0,1,11.33,17.77Z"/></svg>