<svg id="Layer_1" data-name="Layer 1" xmlns="http://www.w3.org/2000/svg" viewBox="0 0 20 20"><defs><style>.cls-1{fill:#5a5cab;}</style></defs><title>control_icons</title><path class="cls-1" d="M19,15.53a1.05,1.05,0,0,0,1-1V10a1,1,0,1,0-2.1,0v4.47A1.05,1.05,0,0,0,19,15.53Z"/><path class="cls-1" d="M11,16.39a1,1,0,1,0-2.1,0V19A1,1,0,0,0,11,19Z"/><path class="cls-1" d="M11,10A1,1,0,1,0,9,10v2.56a1,1,0,0,0,2.1,0Z"/><path class="cls-1" d="M14.47,18.08a1.05,1.05,0,0,0,1-1V10A5.52,5.52,0,0,0,6.13,6.05a1,1,0,0,0,.72,1.8,1,1,0,0,0,.75-.3A3.43,3.43,0,0,1,13.43,10v7A1.05,1.05,0,0,0,14.47,18.08Z"/><path class="cls-1" d="M1,15.53a1.05,1.05,0,0,0,1-1V11.92a1,1,0,0,0-2.1,0v2.56A1.05,1.05,0,0,0,1,15.53Z"/><path class="cls-1" d="M16.05,4.92a1,1,0,0,0,.71.37A1,1,0,0,0,17.53,5a1,1,0,0,0,.13-1.48A10,10,0,0,0,.23,7.86,1.05,1.05,0,0,0,1,9.11l.22,0a1.06,1.06,0,0,0,1-.83A7.9,7.9,0,0,1,16.05,4.92Z"/><path class="cls-1" d="M5.52,18.08a1.05,1.05,0,0,0,1-1V10a1,1,0,1,0-2.1,0v7A1.05,1.05,0,0,0,5.52,18.08Z"/></svg>