<svg id="Layer_1" data-name="Layer 1" xmlns="http://www.w3.org/2000/svg" viewBox="0 0 20 20"><defs><style>.cls-1{fill:#5a5cab;}</style></defs><title>control_icons</title><path class="cls-1" d="M10,0A10,10,0,1,0,20,10,10,10,0,0,0,10,0ZM2.79,7.44a7.63,7.63,0,0,1,14.41,0l0,.13H2.75Zm5.92,10.1A7.65,7.65,0,0,1,2.32,10V9.9h.1c3.47,0,6.35,3.38,6.4,7.55v.12ZM10,11.36A1.36,1.36,0,1,1,11.36,10,1.36,1.36,0,0,1,10,11.36Zm1.29,6.19-.12,0v-.12c.06-4.16,2.93-7.55,6.4-7.55h.1V10A7.65,7.65,0,0,1,11.29,17.55Z"/></svg>