<?xml version="1.0" encoding="iso-8859-1"?>
<!-- Generator: Adobe Illustrator 20.0.0, SVG Export Plug-In . SVG Version: 6.00 Build 0)  -->
<svg version="1.1" id="Layer_1" xmlns="http://www.w3.org/2000/svg" xmlns:xlink="http://www.w3.org/1999/xlink" x="0px" y="0px"
	 viewBox="0 0 20 20" style="enable-background:new 0 0 20 20;" xml:space="preserve">
<linearGradient id="SVGID_1_" gradientUnits="userSpaceOnUse" x1="10.0142" y1="8.8382" x2="10.0142" y2="13.6867">
	<stop  offset="0.1452" style="stop-color:#FFA73E"/>
	<stop  offset="1" style="stop-color:#E88C39"/>
</linearGradient>
<path style="fill:url(#SVGID_1_);" d="M11.174,10c0-0.641-0.52-1.162-1.16-1.162S8.854,9.36,8.854,10v2.525
	c0,0.64,0.52,1.161,1.16,1.161s1.16-0.522,1.16-1.161V10z"/>
<linearGradient id="SVGID_2_" gradientUnits="userSpaceOnUse" x1="10.0142" y1="20" x2="10.0142" y2="15.1515">
	<stop  offset="0.0995" style="stop-color:#39EAD1"/>
	<stop  offset="1" style="stop-color:#1AC2AB"/>
</linearGradient>
<path style="fill:url(#SVGID_2_);" d="M11.174,16.314c0-0.641-0.52-1.162-1.16-1.162s-1.16,0.522-1.16,1.162v2.525
	c0,0.64,0.52,1.161,1.16,1.161s1.16-0.522,1.16-1.161V16.314z"/>
<linearGradient id="SVGID_3_" gradientUnits="userSpaceOnUse" x1="1.1886" y1="15.5809" x2="1.1886" y2="10.7324">
	<stop  offset="0.1452" style="stop-color:#FFA73E"/>
	<stop  offset="1" style="stop-color:#E88C39"/>
</linearGradient>
<path style="fill:url(#SVGID_3_);" d="M1.189,15.581c0.64,0,1.16-0.522,1.16-1.161v-2.526c0-0.64-0.52-1.161-1.16-1.161
	s-1.16,0.522-1.16,1.161v2.526C0.029,15.059,0.549,15.581,1.189,15.581z"/>
<linearGradient id="SVGID_4_" gradientUnits="userSpaceOnUse" x1="18.8397" y1="8.8382" x2="18.8397" y2="15.5809">
	<stop  offset="0.1414" style="stop-color:#6BA7FE"/>
	<stop  offset="1" style="stop-color:#548BF7"/>
</linearGradient>
<path style="fill:url(#SVGID_4_);" d="M18.84,15.581c0.639,0,1.16-0.522,1.16-1.161V10c0-0.641-0.521-1.162-1.16-1.162
	c-0.639,0-1.16,0.522-1.16,1.162v4.419C17.679,15.059,18.2,15.581,18.84,15.581z"/>
<linearGradient id="SVGID_5_" gradientUnits="userSpaceOnUse" x1="0.2315" y1="4.6338" x2="17.9337" y2="4.6338">
	<stop  offset="0.0995" style="stop-color:#39EAD1"/>
	<stop  offset="1" style="stop-color:#1AC2AB"/>
</linearGradient>
<path style="fill:url(#SVGID_5_);" d="M17.52,5.206c0.237-0.199,0.383-0.48,0.41-0.789c0.026-0.308-0.069-0.609-0.268-0.846
	C15.758,1.301,12.971,0,10.014,0c-4.66,0-8.763,3.305-9.756,7.858C0.193,8.161,0.248,8.47,0.414,8.731
	c0.167,0.262,0.427,0.443,0.73,0.51c0.08,0.018,0.164,0.027,0.249,0.027c0.54,0,1.017-0.385,1.132-0.914
	c0.761-3.495,3.911-6.031,7.489-6.031c2.269,0,4.409,0.999,5.871,2.741C16.296,5.554,17.031,5.616,17.52,5.206z"/>
<linearGradient id="SVGID_6_" gradientUnits="userSpaceOnUse" x1="10.6768" y1="18.1058" x2="10.6768" y2="4.4191">
	<stop  offset="0" style="stop-color:#FF6457"/>
	<stop  offset="1" style="stop-color:#FF3074"/>
</linearGradient>
<path style="fill:url(#SVGID_6_);" d="M14.427,18.106c0.639,0,1.16-0.522,1.16-1.161V10c0-3.077-2.5-5.581-5.573-5.581
	c-1.468,0-2.853,0.566-3.9,1.595C5.893,6.231,5.769,6.522,5.766,6.832C5.763,7.141,5.881,7.434,6.097,7.655
	C6.546,8.113,7.282,8.12,7.738,7.673c0.61-0.6,1.418-0.93,2.276-0.93c1.794,0,3.253,1.461,3.253,3.258v6.944
	C13.267,17.584,13.787,18.106,14.427,18.106z"/>
<linearGradient id="SVGID_7_" gradientUnits="userSpaceOnUse" x1="5.6014" y1="18.1058" x2="5.6014" y2="8.8382">
	<stop  offset="0.1414" style="stop-color:#6BA7FE"/>
	<stop  offset="1" style="stop-color:#548BF7"/>
</linearGradient>
<path style="fill:url(#SVGID_7_);" d="M5.601,18.106c0.64,0,1.16-0.522,1.16-1.161V10c0-0.641-0.52-1.162-1.16-1.162
	S4.442,9.36,4.442,10v6.944C4.442,17.584,4.962,18.106,5.601,18.106z"/>
</svg>
