<svg id="Layer_1" data-name="Layer 1" xmlns="http://www.w3.org/2000/svg" xmlns:xlink="http://www.w3.org/1999/xlink" viewBox="0 0 20 20"><defs><style>.cls-1{fill:url(#linear-gradient);}</style><linearGradient id="linear-gradient" x1="0.65" y1="19.35" x2="19.35" y2="0.65" gradientUnits="userSpaceOnUse"><stop offset="0" stop-color="#ff6457"/><stop offset="1" stop-color="#ff3074"/></linearGradient></defs><title>control_icons</title><path class="cls-1" d="M0,2.22V8.67H2.22V2.22H8.67V0H2.22A2.23,2.23,0,0,0,0,2.22Zm2.22,9.11H0v6.44A2.23,2.23,0,0,0,2.22,20H8.67V17.78H2.22Zm15.56,6.44H11.33V20h6.44A2.23,2.23,0,0,0,20,17.78V11.33H17.78ZM17.78,0H11.33V2.22h6.44V8.67H20V2.22A2.23,2.23,0,0,0,17.78,0Z"/></svg>