<?xml version="1.0" encoding="iso-8859-1"?>
<!-- Generator: Adobe Illustrator 20.0.0, SVG Export Plug-In . SVG Version: 6.00 Build 0)  -->
<svg version="1.1" id="Layer_1" xmlns="http://www.w3.org/2000/svg" xmlns:xlink="http://www.w3.org/1999/xlink" x="0px" y="0px"
	 viewBox="0 0 20 20" style="enable-background:new 0 0 20 20;" xml:space="preserve">
<linearGradient id="SVGID_1_" gradientUnits="userSpaceOnUse" x1="0.6528" y1="19.3472" x2="19.3472" y2="0.6528">
	<stop  offset="0" style="stop-color:#FF6457"/>
	<stop  offset="1" style="stop-color:#FF3074"/>
</linearGradient>
<path style="fill:url(#SVGID_1_);" d="M0,2.222v6.444h2.222V2.222h6.444V0H2.222C1,0,0,1,0,2.222z M2.222,11.333H0v6.444
	C0,19,1,20,2.222,20h6.444v-2.222H2.222V11.333z M17.778,17.778h-6.444V20h6.444C19,20,20,19,20,17.778v-6.444h-2.222V17.778z
	 M17.778,0h-6.444v2.222h6.444v6.444H20V2.222C20,1,19,0,17.778,0z"/>
</svg>
