<?xml version="1.0" encoding="iso-8859-1"?>
<!-- Generator: Adobe Illustrator 20.0.0, SVG Export Plug-In . SVG Version: 6.00 Build 0)  -->
<svg version="1.1" id="Layer_1" xmlns="http://www.w3.org/2000/svg" xmlns:xlink="http://www.w3.org/1999/xlink" x="0px" y="0px"
	 viewBox="0 0 10.407 54.188" style="enable-background:new 0 0 10.407 54.188;" xml:space="preserve">
<g>
	<g>
		<path style="fill:#6159AB;" d="M5.203,2.25c1.628,0,2.953,1.325,2.953,2.953S6.832,8.157,5.203,8.157S2.25,6.832,2.25,5.203
			S3.575,2.25,5.203,2.25 M5.203,0C2.33,0,0,2.33,0,5.203c0,2.874,2.33,5.203,5.203,5.203s5.203-2.33,5.203-5.203
			C10.407,2.33,8.077,0,5.203,0L5.203,0z"/>
	</g>
	<circle style="fill:#423875;" cx="5.203" cy="16.466" r="1.96"/>
	<circle style="fill:#423875;" cx="5.203" cy="33.686" r="1.96"/>
	<circle style="fill:#423875;" cx="5.203" cy="25.076" r="1.96"/>
	<g>
		<path style="fill:#6159AB;" d="M5.203,40.022c-3,0-4.833,2.5-4.833,5.167s1.333,5.25,4.833,9c3.5-3.75,4.833-6.333,4.833-9
			S8.203,40.022,5.203,40.022z M5.203,47.105c-1.082,0-1.96-0.877-1.96-1.96s0.877-1.96,1.96-1.96s1.96,0.877,1.96,1.96
			S6.286,47.105,5.203,47.105z"/>
	</g>
</g>
</svg>
